<svg xmlns="http://www.w3.org/2000/svg" width="39.255" height="40.608" viewBox="0 0 39.255 40.608">
  <g id="Group_392" data-name="Group 392" transform="translate(-9956.075 -13519)">
    <g id="noun-migration-3155784" transform="translate(9956.075 13519)">
      <path id="Path_83290" data-name="Path 83290" d="M134.006,498.862v-.116h-8.122v.116a4.622,4.622,0,0,1-.8,2.591H122.5v1.354h14.89v-1.354H134.8A4.621,4.621,0,0,1,134.006,498.862Z" transform="translate(-120.469 -462.199)" fill="#00598e"/>
      <path id="Path_83291" data-name="Path 83291" d="M114.524,323.75h-17.6a.678.678,0,0,0-.677.677v7.445H115.2v-7.445A.678.678,0,0,0,114.524,323.75Z" transform="translate(-96.25 -300.739)" fill="#00598e"/>
      <path id="Path_83292" data-name="Path 83292" d="M104.521,38.085l2.554-2.553V26.248H96.246V38.43h8.448ZM104.368,27.6h1.354v1.354h-1.354Zm-6.768,0h5.414v1.354H97.6Zm0,2.707h8.122v1.354H97.6Zm.677,3.384h6.768V36.4H98.276Z" transform="translate(-96.246 -26.248)" fill="#00598e"/>
      <path id="Path_83293" data-name="Path 83293" d="M420.911,271.779a6.764,6.764,0,0,0,0-1.5l-1.345.151a5.445,5.445,0,0,1,0,1.2Z" transform="translate(-394.557 -251.404)" fill="#00598e"/>
      <path id="Path_83294" data-name="Path 83294" d="M388.89,329.808l.753,1.125a6.8,6.8,0,0,0,1.063-.88l-.965-.949a5.447,5.447,0,0,1-.851.7Z" transform="translate(-366.254 -305.678)" fill="#00598e"/>
      <path id="Path_83295" data-name="Path 83295" d="M409.49,303.983l1.149.715a6.736,6.736,0,0,0,.646-1.356l-1.28-.442a5.335,5.335,0,0,1-.516,1.083Z" transform="translate(-385.26 -281.501)" fill="#00598e"/>
      <path id="Path_83296" data-name="Path 83296" d="M202.618,124.053l-.37.085a10.741,10.741,0,0,0-3.3,1.371l-.322.2-1.467-.734-2.181,2.182.733,1.467-.2.323a10.721,10.721,0,0,0-1.371,3.3l-.085.371-1.553.517v3.573h3.62A8.795,8.795,0,0,1,204,125.919V122.5h-.866Z" transform="translate(-185.051 -115.056)" fill="#00598e"/>
      <path id="Path_83297" data-name="Path 83297" d="M367.047,213.394l.2-.323a10.721,10.721,0,0,0,1.371-3.3l.085-.371,1.553-.517v-3.573h5.414v-1.354h-2.588a4.621,4.621,0,0,1-.8-2.591v-.116h-8.122v.116a4.621,4.621,0,0,1-.8,2.591h-2.588v1.354h5.855a8.8,8.8,0,0,1-7.885,10.794v3.418h.866l.518-1.553.37-.085a10.742,10.742,0,0,0,3.3-1.371l.322-.2,1.467.734,2.181-2.182Z" transform="translate(-338.447 -187.71)" fill="#00598e"/>
      <path id="Path_83298" data-name="Path 83298" d="M96.25,448.28a.678.678,0,0,0,.677.677h17.6a.678.678,0,0,0,.677-.677v-2.03H96.25Z" transform="translate(-96.25 -413.763)" fill="#00598e"/>
      <path id="Path_83299" data-name="Path 83299" d="M466.308,376.6l-2.554,2.554v9.283h10.829V376.25h-8.448Zm.154,10.483h-1.354v-1.354h1.354Zm6.768,0h-5.414v-1.354h5.414Zm0-2.707h-8.122v-1.354h8.122Zm-.677-3.384h-6.768V378.28h6.768Z" transform="translate(-435.328 -349.178)" fill="#00598e"/>
      <path id="Path_83300" data-name="Path 83300" d="M358.75,150.78a.678.678,0,0,0,.677.677h17.6a.678.678,0,0,0,.677-.677v-2.03H358.75Z" transform="translate(-338.446 -139.275)" fill="#00598e"/>
      <path id="Path_83301" data-name="Path 83301" d="M377.024,26.25h-17.6a.678.678,0,0,0-.677.677v7.445H377.7V26.927A.678.678,0,0,0,377.024,26.25Z" transform="translate(-338.446 -26.25)" fill="#00598e"/>
    </g>
  </g>
</svg>
