<svg xmlns="http://www.w3.org/2000/svg" width="526.781" height="174.752" viewBox="0 0 526.781 174.752">
  <g id="Group_393" data-name="Group 393" transform="translate(-1079.219 -2633.982)">
    <text id="Agile_Development" data-name="Agile Development" transform="translate(1128 2660.734)" fill="#fff" font-size="25" font-family="Helvetica"><tspan x="0" y="0">Agile Development</tspan></text>
    <text id="Depending_support_Maintenance" data-name="Depending support/
Maintenance" transform="translate(1128 2772.734)" fill="#fff" font-size="25" font-family="Helvetica"><tspan x="0" y="0">Depending support/</tspan><tspan x="0" y="30">Maintenance</tspan></text>
    <text id="Highly_Efficient" data-name="Highly Efficient" transform="translate(1440 2772.734)" fill="#fff" font-size="25" font-family="Helvetica"><tspan x="0" y="0">Highly Efficient</tspan></text>
    <text id="Top_Quality" data-name="Top Quality" transform="translate(1440 2660.734)" fill="#fff" font-size="25" font-family="Helvetica"><tspan x="0" y="0">Top Quality</tspan></text>
    <g id="Group_310" data-name="Group 310" transform="translate(1079.219 2633.982)">
      <g id="noun-quality-1778380" transform="translate(317.281 0)">
        <path id="Path_111" data-name="Path 111" d="M126.508,39.2l-2.252,1.535-2.679-.553-1.5,2.29-2.679.5-.5,2.679-2.29,1.5.553,2.679-1.535,2.252,1.535,2.252-.553,2.68,2.29,1.5.5,2.679,2.679.5,1.5,2.29,2.679-.553,2.252,1.535,2.252-1.535,2.679.553,1.5-2.29,2.679-.5.5-2.679,2.29-1.5-.553-2.68,1.535-2.252-1.535-2.252.553-2.679-2.29-1.5-.5-2.679-2.679-.5-1.5-2.29-2.679.553L126.508,39.2Zm0,3.22a9.661,9.661,0,1,1-9.662,9.661A9.674,9.674,0,0,1,126.508,42.421Zm0,1.61a8.051,8.051,0,1,0,8.051,8.051A8.039,8.039,0,0,0,126.508,44.031Zm4.78,3.95,1.761,1.648-.83.881-6.038,6.441-.805.855-.881-.78-3.623-3.22-.906-.792,1.61-1.811.906.805,2.742,2.44,5.233-5.585ZM115.966,58.863,109.2,69.392l6.038-1.208,1.61,5.636,5.51-9.183-.616.126a.827.827,0,0,1-.843-.34l-1.308-2-2.34-.453a.826.826,0,0,1-.642-.642l-.453-2.34-.189-.126Zm21.084,0-.189.126-.453,2.34a.827.827,0,0,1-.642.642l-2.34.453-1.308,2a.827.827,0,0,1-.843.34l-.616-.126,5.51,9.183,1.61-5.636,6.038,1.208-6.768-10.53Z" transform="translate(-109.198 -39.2)" fill="#81ceff"/>
      </g>
      <g id="noun-agile-4203231" transform="translate(0 0.315)">
        <path id="Path_112" data-name="Path 112" d="M217.2,150.719v-2.573l-2.007-.806a8.047,8.047,0,0,0-.695-1.715l.858-1.99-1.818-1.818-1.99.858h0a8.073,8.073,0,0,0-1.715-.695l-.78-1.981h-2.573l-.806,2.007h0a8.06,8.06,0,0,0-1.715.695l-1.99-.858-1.818,1.818.858,1.99a8.06,8.06,0,0,0-.695,1.715l-1.981.78v2.573l2.007.806h0a8.075,8.075,0,0,0,.695,1.715l-.858,1.99L202,157.049l1.99-.858a8.055,8.055,0,0,0,1.715.695l.78,1.981h2.573l.806-2.007a8.063,8.063,0,0,0,1.715-.695l1.99.858,1.818-1.818-.858-1.99h0a8.07,8.07,0,0,0,.695-1.715Zm-12.255-.18a.858.858,0,0,1-.609,1.466c-.472,0-.5-.137-2.324-1.964a.858.858,0,0,1,0-1.218l1.715-1.715h0a.861.861,0,0,1,1.218,1.218l-1.115,1.106Zm4.494-3.431-1.715,5.146h0a.86.86,0,1,1-1.629-.549l1.715-5.146a.884.884,0,0,1,1.672.575Zm4.082,2.907c-1.819,1.844-1.853,1.99-2.324,1.99a.858.858,0,0,1-.609-1.467l1.115-1.106-1.115-1.106h0a.861.861,0,1,1,1.218-1.218l1.715,1.715h0a.857.857,0,0,1,0,1.218Z" transform="translate(-188.902 -133.138)" fill="#81ceff"/>
        <path id="Path_113" data-name="Path 113" d="M110.814,75.979l-5.146-3.431a.858.858,0,0,0-.858-.043c-.515.275-.455.677-.455,1.612h-3.585c9.683-10.292,2.461-27.444-11.869-27.444S67.35,63.826,77.024,74.118H70.892a.857.857,0,0,0-.763,1.244l.66,1.329-.66,1.329a.857.857,0,0,0,.763,1.244h33.448v.858a.857.857,0,0,0,.857.857c.369,0,.086.111,5.618-3.576a.858.858,0,0,0,0-1.424ZM88.9,48.389a14.58,14.58,0,0,1,0,29.16H80.858c.463-.935.429-.858,0-1.715H88.9a12.864,12.864,0,1,0-6.389-1.715H79.528C69.176,65.4,75.309,48.389,88.9,48.389ZM76.569,77.548c.472-.952.4-.858,0-1.715h2.367l.429.858-.429.858ZM88.9,74.118a11.149,11.149,0,1,1,7.883-3.266A11.15,11.15,0,0,1,88.9,74.118ZM72.281,75.833h2.367l.429.858-.429.858H72.281C72.753,76.6,72.684,76.691,72.281,75.833Zm33.773,2.685a.858.858,0,0,0-.858-.969H96.14a15.968,15.968,0,0,0,2.744-1.715H105.2a.857.857,0,0,0,.858-.857c0-.171-.343-.343,2.744,1.715Z" transform="translate(-70.037 -46.674)" fill="#81ceff"/>
      </g>
      <g id="noun-maintenance-1350555" transform="translate(0 115.684)">
        <path id="Path_114" data-name="Path 114" d="M112.113,28a1.155,1.155,0,0,0-1.034,1.154v3.029a13.862,13.862,0,0,0-2.1.925L106.9,31.03a1.154,1.154,0,0,0-1.635,0l-4.232,4.231h0a1.154,1.154,0,0,0,0,1.623l2.092,2.092a13.837,13.837,0,0,0-.926,2.1H99.155A1.154,1.154,0,0,0,98,42.233v6.155h0a1.154,1.154,0,0,0,1.154,1.154H102.2a13.8,13.8,0,0,0,.926,2.092l-2.092,2.092h0a1.154,1.154,0,0,0,0,1.623l4.232,4.231h0a1.154,1.154,0,0,0,1.635,0l2.079-2.079a12.712,12.712,0,0,0,2.873,1.2v2.765h0A1.154,1.154,0,0,0,113,62.619h4.616a1.154,1.154,0,0,0,1.154-1.154V58.7a12.7,12.7,0,0,0,2.873-1.2l2.08,2.08a1.154,1.154,0,0,0,1.635,0l4.231-4.231h0a1.154,1.154,0,0,0,0-1.623L127.5,51.632a13.835,13.835,0,0,0,.926-2.092h3.041a1.154,1.154,0,0,0,1.154-1.154V42.232h0a1.154,1.154,0,0,0-1.154-1.154h-3.041a13.776,13.776,0,0,0-.926-2.1l2.092-2.092h0a1.154,1.154,0,0,0,0-1.623L125.36,31.03h0a1.154,1.154,0,0,0-1.635,0l-2.079,2.079a13.841,13.841,0,0,0-2.1-.925V29.154A1.154,1.154,0,0,0,118.388,28h-6.155a1.123,1.123,0,0,0-.12,0Zm1.274,2.308h3.847v2.681a1.154,1.154,0,0,0,.877,1.118,11.991,11.991,0,0,1,3.15,1.418,1.154,1.154,0,0,0,1.407-.18l1.875-1.875,2.6,2.608-1.875,1.875h0a1.154,1.154,0,0,0-.168,1.406,11.931,11.931,0,0,1,1.407,3.149,1.154,1.154,0,0,0,1.118.877h2.693v3.846h-2.693a1.154,1.154,0,0,0-1.118.865,11.921,11.921,0,0,1-1.407,3.149,1.154,1.154,0,0,0,.168,1.406l1.875,1.887-2.6,2.6-1.875-1.875h0a1.154,1.154,0,0,0-1.407-.18,13.391,13.391,0,0,1-2.488,1.2v-1.6a10,10,0,1,0-6.924,0v1.6a13.39,13.39,0,0,1-2.488-1.2h0a1.154,1.154,0,0,0-1.407.18l-1.875,1.875-2.6-2.6,1.875-1.887h0a1.154,1.154,0,0,0,.168-1.406A11.931,11.931,0,0,1,104.12,48.1,1.154,1.154,0,0,0,103,47.233h-2.693V43.387H103a1.154,1.154,0,0,0,1.118-.877,11.921,11.921,0,0,1,1.407-3.149,1.154,1.154,0,0,0-.168-1.406l-1.875-1.875,2.6-2.608,1.875,1.875h0a1.154,1.154,0,0,0,1.407.18,11.976,11.976,0,0,1,3.15-1.418,1.154,1.154,0,0,0,.877-1.118Zm1.923,7.308a7.689,7.689,0,0,1,3.462,14.557V50.851c2.126-1.566,3.462-3.447,3.462-5.926a6.8,6.8,0,0,0-4.6-6.094,1.154,1.154,0,0,0-1.551,1.094v3.955l-.769.469-.769-.469V39.924a1.158,1.158,0,0,0-1.551-1.094,6.8,6.8,0,0,0-4.6,6.094c0,2.479,1.336,4.36,3.462,5.926v1.322a7.689,7.689,0,0,1,3.462-14.557Zm-3.077,4.435V44.54a1.154,1.154,0,0,0,.565.986l1.923,1.154a1.155,1.155,0,0,0,1.178,0l1.923-1.154a1.154,1.154,0,0,0,.565-.986V42.052a4.436,4.436,0,0,1,1.539,2.873c0,1.919-.786,2.984-2.945,4.424h0a1.154,1.154,0,0,0-.517.962v10h-2.308v-10a1.154,1.154,0,0,0-.517-.962c-2.16-1.44-2.945-2.505-2.945-4.424a4.437,4.437,0,0,1,1.539-2.873Z" transform="translate(-98.001 -27.999)" fill="#81ceff"/>
      </g>
      <g id="noun-efficient-3734255" transform="translate(317.281 115.945)">
        <path id="Path_115" data-name="Path 115" d="M244.635,33.155H245.8a8.167,8.167,0,0,1-3.155-6.361c0-4.807,4.484-8.711,10.005-8.711h2.366v1.446a.754.754,0,0,0,.457.65.692.692,0,0,0,.374.072.932.932,0,0,0,.457-.108l4.317-2.421a.69.69,0,0,0,.374-.614.781.781,0,0,0-.374-.614l-4.359-2.458a.958.958,0,0,0-.83-.036.67.67,0,0,0-.457.614v1.446h-2.366c-6.808,0-12.371,4.843-12.371,10.771a9.93,9.93,0,0,0,2.574,6.578,7.95,7.95,0,0,1,1.827-.253Z" transform="translate(-232.294 -13.921)" fill="#81ceff"/>
        <path id="Path_116" data-name="Path 116" d="M501.72,108.349a7.878,7.878,0,0,1,2.034,5.241,8.223,8.223,0,0,1-3.114,6.289l1.038-.289a4.033,4.033,0,0,1,1.121-.181,4.375,4.375,0,0,1,1.2.181,9.654,9.654,0,0,0-.374-12.506,1.313,1.313,0,0,0-1.66-.217.991.991,0,0,0-.249,1.482Z" transform="translate(-473.396 -100.681)" fill="#81ceff"/>
        <path id="Path_117" data-name="Path 117" d="M327.826,128.7a.618.618,0,0,0,.581-.578V126.86a.618.618,0,0,0-.581-.578l-1.246-.144c-.166-.325-.208-.434-.374-.759l.747-.868a.513.513,0,0,0-.083-.759l-1.038-.9a.776.776,0,0,0-.872-.072l-1,.65c-.374-.144-.5-.181-.872-.325l-.166-1.084a.647.647,0,0,0-.664-.506h-1.453a.647.647,0,0,0-.664.506l-.166,1.084c-.374.144-.457.181-.872.325l-1-.65a.708.708,0,0,0-.872.072l-1.038.9a.508.508,0,0,0-.041.759l.747.868c-.166.325-.208.434-.374.759l-1.246.144a.618.618,0,0,0-.581.578v1.265a.618.618,0,0,0,.581.578l1.246.144c.166.325.208.4.374.759l-.747.868a.538.538,0,0,0,.041.759l1.038.9a.713.713,0,0,0,.872.036l1-.65c.374.144.5.181.872.325l.166,1.084a.647.647,0,0,0,.664.506h1.5a.648.648,0,0,0,.664-.506l.166-1.084c.374-.144.5-.181.872-.325l1,.65a.771.771,0,0,0,.872-.036l1.038-.9a.548.548,0,0,0,.083-.759l-.789-.9c.166-.325.208-.4.374-.723Zm-6.227.976a2.437,2.437,0,0,1-2.574-2.241,2.581,2.581,0,0,1,5.106,0A2.374,2.374,0,0,1,321.6,129.679Z" transform="translate(-301.628 -114.566)" fill="#81ceff"/>
        <path id="Path_118" data-name="Path 118" d="M125.845,436.08a.717.717,0,0,0,.135.94l4.634,3.578a.615.615,0,0,0,.879-.144l1.793-2.675-5.649-4.337Z" transform="translate(-125.727 -406.365)" fill="#81ceff"/>
        <path id="Path_119" data-name="Path 119" d="M201.664,328.612l-5.09,1.482v.289a2.951,2.951,0,0,1-2.5,2.675l-.334.072a37.928,37.928,0,0,1-5.716.723l-1.586.072a.929.929,0,0,1-1-.759.885.885,0,0,1,.876-.867l1.586-.072a39.741,39.741,0,0,0,5.424-.687l.334-.072a1.329,1.329,0,0,0,1.085-1.157,1.144,1.144,0,0,0-.375-.868,1.578,1.578,0,0,0-1-.362l-8.3-.072a4.54,4.54,0,0,0-2.5.723l-6.717,4.409,7.135,4.446,6.926.434a5.365,5.365,0,0,0,3.338-.9l9.972-7.084a1.218,1.218,0,0,0,.584-1.012,1.263,1.263,0,0,0-.459-1.084,1.72,1.72,0,0,0-1.669-.325Z" transform="translate(-172.811 -308.222)" fill="#81ceff"/>
      </g>
    </g>
  </g>
</svg>
