<svg id="Group_349" data-name="Group 349" xmlns="http://www.w3.org/2000/svg" width="68.266" height="68.268" viewBox="0 0 68.266 68.268">
  <g id="Group_347" data-name="Group 347">
    <g id="Group_346" data-name="Group 346">
      <path id="Path_145" data-name="Path 145" d="M233.381,446.25a9.057,9.057,0,0,1-1.756,4.708h22.433a9.057,9.057,0,0,1-1.756-4.708Z" transform="translate(-213.415 -389.753)" fill="#00598e"/>
      <path id="Path_146" data-name="Path 146" d="M152.752,146.707a2.356,2.356,0,0,1-2.354,2.354H100.963a2.356,2.356,0,0,1-2.354-2.354V118.458a2.356,2.356,0,0,1,2.354-2.354h35.363a15.233,15.233,0,0,1-.048-1.536c.006-.275.039-.546.06-.818H99.787a3.535,3.535,0,0,0-3.531,3.531v35.311a3.535,3.535,0,0,0,3.531,3.531h51.789a3.535,3.535,0,0,0,3.531-3.531v-11.4a8.162,8.162,0,0,1-2.354.712Zm-11.77,7.062h-2.354v-2.354h2.354Zm4.708,0h-2.354v-2.354h2.354Zm4.708,0h-2.354v-2.354H150.4Z" transform="translate(-96.256 -101.979)" fill="#00598e"/>
      <path id="Path_148" data-name="Path 148" d="M211.488,498.75H176.177A1.178,1.178,0,0,0,175,499.927v2.354a1.178,1.178,0,0,0,1.177,1.177h35.311a1.178,1.178,0,0,0,1.177-1.177v-2.354A1.178,1.178,0,0,0,211.488,498.75Z" transform="translate(-164.407 -435.19)" fill="#00598e"/>
      <path id="Path_149" data-name="Path 149" d="M131.25,148.75v7.062h39.615A15.26,15.26,0,0,1,167,148.75Zm4.708,4.708H133.6V151.1h2.354Zm4.708,0h-2.354V151.1h2.354Zm4.708,0H143.02V151.1h2.354Z" transform="translate(-126.543 -132.271)" fill="#00598e"/>
      <path id="Path_150" data-name="Path 150" d="M433.172,29.868A12.836,12.836,0,0,0,424.2,26.25c-.171,0-.34,0-.512.009a13.116,13.116,0,0,0-12.435,12.633,12.933,12.933,0,0,0,4.274,9.9,8.213,8.213,0,0,1,2.767,5.7h2.372V40.374h-1.177a3.531,3.531,0,1,1,3.531-3.531V38.02h2.354V36.843a3.531,3.531,0,1,1,3.531,3.531h-1.177V54.5h2.38a8.459,8.459,0,0,1,2.827-5.763,12.928,12.928,0,0,0,.239-18.868Z" transform="translate(-368.876 -26.25)" fill="#00598e"/>
    </g>
    <g id="Group_348" data-name="Group 348" transform="translate(4.707 25.895)">
      <path id="Path_147" data-name="Path 147" d="M172.9,218.75H131.25v18.832h49.435v-4.8a8.245,8.245,0,0,1-7.062-8.145v-3.212a5.431,5.431,0,0,0-.721-2.673ZM154.79,221.1h2.354v2.354H154.79Zm-3.531,12.947H134.781v-11.77h16.478Zm20.009-1.177H154.79V230.52h16.478Zm0-4.708H154.79v-2.354h16.478Zm0-4.708H159.5V221.1h11.77Z" transform="translate(-131.25 -218.75)" fill="#00598e"/>
      <path id="Path_151" data-name="Path 151" d="M463.75,254.927a5.885,5.885,0,1,0,11.77,0V253.75H463.75Z" transform="translate(-419.022 -249.042)" fill="#00598e"/>
    </g>
  </g>
  <path id="Path_152" data-name="Path 152" d="M498.75,131.25H501.1v14.124H498.75Z" transform="translate(-444.608 -117.126)" fill="#fff"/>
</svg>
