<svg xmlns="http://www.w3.org/2000/svg" width="46.309" height="40.387" viewBox="0 0 46.309 40.387">
  <g id="noun-front-end-3151968" transform="translate(-96.256 -26.25)">
    <path id="Path_83282" data-name="Path 83282" d="M232.816,446.25a6.144,6.144,0,0,1-1.191,3.194h15.218a6.144,6.144,0,0,1-1.191-3.194Z" transform="translate(-123.017 -387.598)" fill="#00598e"/>
    <path id="Path_83283" data-name="Path 83283" d="M134.58,136.106a1.6,1.6,0,0,1-1.6,1.6H99.449a1.6,1.6,0,0,1-1.6-1.6V116.944a1.6,1.6,0,0,1,1.6-1.6h23.989a10.339,10.339,0,0,1-.033-1.042c0-.187.026-.37.041-.555H98.651a2.4,2.4,0,0,0-2.4,2.4V140.1a2.4,2.4,0,0,0,2.4,2.4h35.131a2.4,2.4,0,0,0,2.4-2.4v-7.733a5.538,5.538,0,0,1-1.6.483ZM126.6,140.9H125v-1.6h1.6Zm3.194,0h-1.6v-1.6h1.6Zm3.194,0h-1.6v-1.6h1.6Z" transform="translate(0 -82.208)" fill="#00598e"/>
    <path id="Path_83284" data-name="Path 83284" d="M159.5,218.75H131.25v12.775h33.534v-3.258a5.593,5.593,0,0,1-4.791-5.525v-2.179a3.684,3.684,0,0,0-.489-1.813Zm-12.286,1.6h1.6v1.6h-1.6Zm-2.4,8.783H133.645v-7.984h11.178Zm13.573-.8H147.219v-1.6H158.4Zm0-3.194H147.219v-1.6H158.4Zm0-3.194h-7.984v-1.6H158.4Z" transform="translate(-31.801 -178.037)" fill="#00598e"/>
    <path id="Path_83285" data-name="Path 83285" d="M199.752,498.75H175.8a.8.8,0,0,0-.8.8v1.6a.8.8,0,0,0,.8.8h23.953a.8.8,0,0,0,.8-.8v-1.6A.8.8,0,0,0,199.752,498.75Z" transform="translate(-71.559 -435.307)" fill="#00598e"/>
    <path id="Path_83286" data-name="Path 83286" d="M131.25,148.75v4.791h26.873a10.352,10.352,0,0,1-2.624-4.791Zm3.194,3.194h-1.6v-1.6h1.6Zm3.194,0h-1.6v-1.6h1.6Zm3.194,0h-1.6v-1.6h1.6Z" transform="translate(-31.801 -112.916)" fill="#00598e"/>
    <path id="Path_83287" data-name="Path 83287" d="M426.12,28.7a8.707,8.707,0,0,0-6.087-2.454c-.116,0-.231,0-.347.006a8.9,8.9,0,0,0-8.436,8.57,8.773,8.773,0,0,0,2.9,6.719,5.571,5.571,0,0,1,1.877,3.868h1.609V35.831h-.8a2.4,2.4,0,1,1,2.4-2.4v.8h1.6v-.8a2.4,2.4,0,1,1,2.4,2.4h-.8v9.581h1.614a5.738,5.738,0,0,1,1.918-3.909,8.77,8.77,0,0,0,.162-12.8Z" transform="translate(-286.249 0)" fill="#00598e"/>
    <path id="Path_83288" data-name="Path 83288" d="M463.75,254.548a3.992,3.992,0,0,0,7.984,0v-.8H463.75Z" transform="translate(-333.96 -209.702)" fill="#00598e"/>
    <path id="Path_83289" data-name="Path 83289" d="M498.75,131.25h1.6v9.581h-1.6Z" transform="translate(-365.766 -96.964)" fill="#00598e"/>
  </g>
</svg>
