<svg xmlns="http://www.w3.org/2000/svg" width="40.768" height="40.767" viewBox="0 0 40.768 40.767">
  <g id="noun-mobile-programming-5131638" transform="translate(-104.998 -35.002)">
    <path id="Path_4" data-name="Path 4" d="M447.692,122.5a2.9,2.9,0,0,0-2.507,1.456H437.5v2.912h7.685a2.906,2.906,0,1,0,2.507-4.368Z" transform="translate(-304.838 -80.219)" fill="#00598e"/>
    <path id="Path_5" data-name="Path 5" d="M447.692,193.956a2.9,2.9,0,0,0-2.507,1.456h-1.258l-2.486-2.486a1.455,1.455,0,0,0-1.029-.426H437.5v2.912h2.309l2.486,2.486a1.454,1.454,0,0,0,1.029.426h1.861a2.906,2.906,0,1,0,2.507-4.368Z" transform="translate(-304.838 -144.395)" fill="#00598e"/>
    <path id="Path_6" data-name="Path 6" d="M441.447,41.859l2.485-2.486h1.258a2.912,2.912,0,1,0,0-2.912h-1.861a1.455,1.455,0,0,0-1.03.427l-2.485,2.485H437.5v2.912h2.912a1.455,1.455,0,0,0,1.03-.426Z" transform="translate(-304.843 -0.003)" fill="#00598e"/>
    <path id="Path_7" data-name="Path 7" d="M130.159,74.158l-1.01-1.006a2.9,2.9,0,0,1-2.312,1.161H109.366a2.915,2.915,0,0,1-2.912-2.912V39.37a2.915,2.915,0,0,1,2.912-2.912h17.472a2.915,2.915,0,0,1,2.912,2.912V58.32c.066-.078.12-.163.193-.236a3.645,3.645,0,0,1,1.263-.812v-17.9A4.373,4.373,0,0,0,126.838,35H109.366A4.373,4.373,0,0,0,105,39.369V71.4a4.373,4.373,0,0,0,4.368,4.368h17.472a4.342,4.342,0,0,0,3.343-1.591l-.021-.02Z" fill="#00598e"/>
    <path id="Path_8" data-name="Path 8" d="M318.84,285.791l-4.138-4.12,0,0a2.2,2.2,0,0,0-3.1,0,2.5,2.5,0,0,0-.517,2.576c-.045.066-.018-.064-.023-.023l-.494-.492a2.2,2.2,0,0,0-3.1,0,2.182,2.182,0,0,0,0,3.091l-6.21-6.183a2.2,2.2,0,0,0-3.1,0,2.182,2.182,0,0,0,0,3.091l5.173,5V293.1a.727.727,0,0,0,.214.515l4.14,4.122c.112.112,8.73,2.64,8.73,2.64a.733.733,0,0,0,.621-.206l5.017-6.326a.728.728,0,0,0,.177-.746s-3.294-7.229-3.374-7.308Z" transform="translate(-176.485 -224.615)" fill="#00598e"/>
    <path id="Path_9" data-name="Path 9" d="M155.3,86.019a3.631,3.631,0,0,1,2.579,1.065l2.505,2.494V71.46A1.456,1.456,0,0,0,158.931,70h-5.824a2.912,2.912,0,1,1-5.824,0h-5.824A1.456,1.456,0,0,0,140,71.46v32.032a1.456,1.456,0,0,0,1.456,1.456h17.472a1.438,1.438,0,0,0,1.253-.759l-2.075-2.067a2.2,2.2,0,0,1-.643-1.547V96.826l-4.729-4.573A3.641,3.641,0,0,1,155.3,86.02Zm-1.982-8.947a.728.728,0,0,1,1.03-1.03l2.912,2.912a.728.728,0,0,1,0,1.03L154.35,82.9a.728.728,0,0,1-1.03-1.03l2.4-2.4Zm-6.25,4.795a.728.728,0,0,1-1.03,1.029l-2.912-2.912a.728.728,0,0,1,0-1.03l2.912-2.912a.728.728,0,1,1,1.03,1.03l-2.4,2.4Zm4.559-5.133-1.456,5.824a.728.728,0,0,1-1.412-.353l1.456-5.824a.728.728,0,0,1,1.412.353Z" transform="translate(-32.092 -32.09)" fill="#00598e"/>
  </g>
</svg>
