<svg xmlns="http://www.w3.org/2000/svg" width="40.7" height="40.7" viewBox="0 0 40.7 40.7">
  <g id="noun-ui-ux-2234621" transform="translate(-148.75 -70)">
    <path id="Path_16" data-name="Path 16" d="M167.921,175H148.75v5.228h19.171Zm-15.685,3.486h-1.743v-1.743h1.743Zm3.486,0h-1.743v-1.743h1.743Zm3.486,0h-1.743v-1.743h1.743Zm3.486,0h-1.743v-1.743h1.743Zm3.486,0h-1.743v-1.743h1.743Z" transform="translate(0 -94.865)" fill="#00598e"/>
    <path id="Path_17" data-name="Path 17" d="M405.986,176.743A1.743,1.743,0,1,1,404.243,175a1.743,1.743,0,0,1,1.743,1.743" transform="translate(-228.652 -94.853)" fill="#00598e"/>
    <path id="Path_18" data-name="Path 18" d="M323.75,288.75h1.743v1.743H323.75Z" transform="translate(-157.686 -197.586)" fill="#00598e"/>
    <path id="Path_19" data-name="Path 19" d="M232.556,142.553v6.808a.845.845,0,0,1-.253.6.869.869,0,0,1-.61.249H218.75v17.02h18.12v-9.361a.857.857,0,0,1,.863-.851h6.9V140H218.75v1.7h12.943a.869.869,0,0,1,.61.249A.845.845,0,0,1,232.556,142.553Zm-12.08,11.063a.857.857,0,0,1,.863-.851h3.451a.869.869,0,0,1,.61.249.845.845,0,0,1,.253.6v3.4a.845.845,0,0,1-.253.6.869.869,0,0,1-.61.249h-3.451a.857.857,0,0,1-.863-.851Zm0,5.957H222.2v1.7h-1.726Zm12.08,5.106h-12.08v-1.7h12.08Zm0-3.4h-8.629v-1.7h8.629Zm0-4.255a.845.845,0,0,1-.253.6.869.869,0,0,1-.61.249h-3.452a.857.857,0,0,1-.863-.851v-3.4a.857.857,0,0,1,.863-.851h3.452a.869.869,0,0,1,.61.249.845.845,0,0,1,.253.6Zm1.726-5.957a4.241,4.241,0,0,1,1.9-3.527,3.371,3.371,0,0,1-.041-4.834,3.486,3.486,0,0,1,4.9,0,3.371,3.371,0,0,1-.041,4.834,4.24,4.24,0,0,1,1.9,3.527v3.4a.845.845,0,0,1-.253.6.869.869,0,0,1-.61.249h-6.9a.857.857,0,0,1-.863-.851Z" transform="translate(-63.029 -63.029)" fill="#00598e"/>
    <path id="Path_20" data-name="Path 20" d="M398.978,230.115a2.614,2.614,0,1,0-5.228,0v2.614h5.228Z" transform="translate(-220.775 -142.298)" fill="#00598e"/>
    <path id="Path_21" data-name="Path 21" d="M244.636,70H218.75v5.228h25.886ZM230.83,73.486H229.1V71.743h1.726Zm3.452,0h-1.726V71.743h1.726Z" transform="translate(-63.029)" fill="#00598e"/>
    <path id="Path_22" data-name="Path 22" d="M420,332.5v12.2h13.942V332.5Zm1.743,1.743h1.743v1.743h-1.743Zm10.457,8.714H421.743v-1.743H432.2Zm0-3.486H421.743v-1.743H432.2Zm0-3.486h-6.971v-1.743H432.2Z" transform="translate(-244.492 -237.396)" fill="#00598e"/>
    <path id="Path_23" data-name="Path 23" d="M253.75,288.75h1.743v1.743H253.75Z" transform="translate(-94.611 -197.586)" fill="#00598e"/>
    <path id="Path_24" data-name="Path 24" d="M236.87,440.114V437.5H218.75v5.228h25.886v-1.743h-6.9A.867.867,0,0,1,236.87,440.114Zm-4.314.871H230.83v-1.743h1.726Z" transform="translate(-63.029 -332.028)" fill="#00598e"/>
  </g>
</svg>
