<svg id="noun-integration-2339732" xmlns="http://www.w3.org/2000/svg" width="68.516" height="68.516" viewBox="0 0 68.516 68.516">
  <g id="Group_337" data-name="Group 337">
    <path id="Path_140" data-name="Path 140" d="M312.592,237.22h-.073a5.543,5.543,0,0,0-3.885,1.612,5.374,5.374,0,0,0,.1,7.667,5.548,5.548,0,0,0,3.853,1.518h.071a5.549,5.549,0,0,0,3.886-1.613,5.4,5.4,0,0,0,1.56-3.843v-.01a5.324,5.324,0,0,0-1.658-3.814,5.543,5.543,0,0,0-3.851-1.518Zm2.926,8.172a4.113,4.113,0,0,1-2.879,1.19h-.055a4.107,4.107,0,0,1-2.854-1.12,3.941,3.941,0,0,1-.07-5.616,4.1,4.1,0,0,1,2.878-1.189h.055a4.1,4.1,0,0,1,2.854,1.12,3.9,3.9,0,0,1,1.212,2.79,3.98,3.98,0,0,1-1.141,2.825Z" transform="translate(-278.282 -208.408)" fill="#00598e"/>
    <path id="Path_141" data-name="Path 141" d="M115.2,10.938A34.258,34.258,0,1,0,149.456,45.2,34.3,34.3,0,0,0,115.2,10.938Zm.117,5.764a3.131,3.131,0,0,1,1.237,6.036V28.06h-2.405v-5.3a3.139,3.139,0,0,1-2.032-2.915A3.176,3.176,0,0,1,115.315,16.7ZM95.758,58.576a3.125,3.125,0,0,1-1.5,1.921,3.242,3.242,0,0,1-4.364-1.146,3.074,3.074,0,0,1-.326-2.376,3.125,3.125,0,0,1,1.5-1.921,3.253,3.253,0,0,1,3.458.177l4.848-3.1,1.3,2.015L95.81,57.255a3.062,3.062,0,0,1-.052,1.322Zm3.767-20.569-4.818-3.079a3.266,3.266,0,0,1-1.933.633,3.221,3.221,0,0,1-1.589-.417,3.127,3.127,0,0,1-1.5-1.921,3.069,3.069,0,0,1,.326-2.376A3.238,3.238,0,0,1,94.376,29.7a3.127,3.127,0,0,1,1.5,1.921,3.057,3.057,0,0,1,.07,1.253l4.879,3.118Zm15.557,35.684a3.131,3.131,0,0,1-1.237-6.036V62.331h2.405v5.3a3.14,3.14,0,0,1,2.032,2.916A3.175,3.175,0,0,1,115.082,73.691Zm13.285-25.338a1.556,1.556,0,0,1-1.11.484l-2.155.026c-.015.039-.031.078-.045.116-.029.07-.055.125-.077.173l1.509,1.437h0a1.59,1.59,0,0,1,.129,2.113.906.906,0,0,1-.069.082L123.241,56.1a1.55,1.55,0,0,1-2.177.027l-1.509-1.439c-.071.031-.14.058-.207.08l-.116.049.027,2.083a1.427,1.427,0,0,1-.4,1.043,1.568,1.568,0,0,1-1.111.486l-4.727.057h-.064a1.514,1.514,0,0,1-1.486-1.493l-.027-2.077c-.068-.027-.131-.054-.189-.079l-.127-.058-1.482,1.485a1.55,1.55,0,0,1-2.177.027l-3.392-3.232a1.491,1.491,0,0,1-.027-2.165l1.461-1.463c-.028-.062-.052-.124-.075-.184l-.049-.111-2.15.026a1.513,1.513,0,0,1-1.55-1.49l-.058-4.617a1.427,1.427,0,0,1,.4-1.043,1.556,1.556,0,0,1,1.11-.484l2.109-.051c.028-.068.057-.133.083-.191.015-.034.033-.069.05-.1l-1.506-1.436a1.469,1.469,0,0,1,.031-2.158L107.19,34.3a1.546,1.546,0,0,1,2.177-.026l1.509,1.438c.07-.031.139-.058.2-.08l.117-.05-.027-2.083a1.427,1.427,0,0,1,.4-1.043,1.564,1.564,0,0,1,1.111-.486l4.727-.057a1.513,1.513,0,0,1,1.549,1.49l.027,2.088c.04.015.082.031.12.043.082.032.144.06.2.085l1.483-1.485a1.551,1.551,0,0,1,2.177-.027l3.376,3.218a1.494,1.494,0,0,1,.027,2.165L124.9,40.952c.027.061.051.122.073.181l.051.115,2.149-.026a1.513,1.513,0,0,1,1.549,1.491l.042,4.6a1.426,1.426,0,0,1-.4,1.037Zm12.018,11.2a3.242,3.242,0,0,1-4.364,1.146,3.127,3.127,0,0,1-1.5-1.921,3.057,3.057,0,0,1-.07-1.253L129.572,54.4l1.3-2.015,4.818,3.079a3.255,3.255,0,0,1,3.523-.215,3.127,3.127,0,0,1,1.5,1.921,3.077,3.077,0,0,1-.328,2.376Zm-1.056-24.208a3.225,3.225,0,0,1-1.59.418,3.262,3.262,0,0,1-1.872-.593l-4.846,3.1-1.3-2.015,4.863-3.107a3.063,3.063,0,0,1,.055-1.322,3.125,3.125,0,0,1,1.5-1.921,3.241,3.241,0,0,1,4.364,1.146,3.074,3.074,0,0,1,.326,2.376,3.13,3.13,0,0,1-1.5,1.92Z" transform="translate(-80.94 -10.938)" fill="#00598e"/>
  </g>
</svg>
