<svg xmlns="http://www.w3.org/2000/svg" width="40.77" height="40.77" viewBox="0 0 40.77 40.77">
  <g id="noun-service-icon-2117211" transform="translate(-209.999 -148.004)">
    <path id="Path_25" data-name="Path 25" d="M369.968,164.526a.812.812,0,0,0,.23-.508l.312-3.264a.852.852,0,0,0-.23-.656.764.764,0,0,0-.656-.23l-3.264.312a.854.854,0,0,0-.508.23l-12.565,12.565,4.1,4.1Z" transform="translate(-121.885 -10.078)" fill="#00598e"/>
    <path id="Path_26" data-name="Path 26" d="M252.4,316.038a.77.77,0,0,0,.574-.246l9.005-9.005a.824.824,0,0,0-1.165-1.165l-9.005,9.005a.812.812,0,0,0,0,1.165A.832.832,0,0,0,252.4,316.038Z" transform="translate(-35.347 -133.58)" fill="#00598e"/>
    <path id="Path_27" data-name="Path 27" d="M210.245,286a.812.812,0,0,0,0,1.165l6.528,6.529a.824.824,0,0,0,.574.246.8.8,0,0,0,.574-.246l13.992-13.992-7.693-7.693Zm15.83-9.793a1.647,1.647,0,0,1,1.165,2.8l-9.005,9.005a1.647,1.647,0,0,1-2.329-2.329l9.005-9.005A1.694,1.694,0,0,1,226.075,276.212Z" transform="translate(0 -105.17)" fill="#00598e"/>
    <path id="Path_28" data-name="Path 28" d="M254.789,174.5a7.789,7.789,0,0,0-8.495-1.733l-13.781-13.9a7.955,7.955,0,0,0-1.718-8.565,7.807,7.807,0,0,0-8.707-1.634.839.839,0,0,0-.246,1.353l3.6,3.631L223.02,156.1l-3.6-3.631a.811.811,0,0,0-.736-.231.851.851,0,0,0-.606.479,8.032,8.032,0,0,0,1.62,8.779,7.789,7.789,0,0,0,8.495,1.733l13.781,13.9a7.955,7.955,0,0,0,1.718,8.565,7.862,7.862,0,0,0,5.565,2.31,7.73,7.73,0,0,0,3.143-.66.839.839,0,0,0,.246-1.353l-3.6-3.631,2.422-2.442,3.6,3.631a.811.811,0,0,0,.737.231.851.851,0,0,0,.606-.479A7.994,7.994,0,0,0,254.789,174.5Z" transform="translate(-6.308)" fill="#00598e"/>
  </g>
</svg>
