<svg xmlns="http://www.w3.org/2000/svg" width="40.7" height="40.7" viewBox="0 0 40.7 40.7">
  <g id="noun-hosting-1014810" transform="translate(-70.002 -28.324)">
    <path id="Path_120" data-name="Path 120" d="M109.907,28.324H70.8a.843.843,0,0,0-.795.884V39.664a.843.843,0,0,0,.795.884h39.11a.843.843,0,0,0,.795-.884V29.208A.843.843,0,0,0,109.907,28.324Zm-16.5,8.161a.422.422,0,0,1-.4.443H72.945a.422.422,0,0,1-.4-.443V35.029a.422.422,0,0,1,.4-.443H93.007a.422.422,0,0,1,.4.443Zm6.6-3.51a.422.422,0,0,1-.4.443H97.544a.422.422,0,0,1-.4-.443V31.688a.422.422,0,0,1,.4-.443H99.61a.422.422,0,0,1,.4.443Zm4.074,0a.422.422,0,0,1-.4.443h-2.066a.422.422,0,0,1-.4-.443V31.688a.422.422,0,0,1,.4-.443h2.067a.422.422,0,0,1,.4.443v1.287Zm4.074,0a.422.422,0,0,1-.4.443h-2.067a.422.422,0,0,1-.4-.443V31.688a.422.422,0,0,1,.4-.443h2.067a.422.422,0,0,1,.4.443Zm1.751,9.587H70.8a.844.844,0,0,0-.795.885V53.9a.844.844,0,0,0,.795.884h39.11a.844.844,0,0,0,.795-.884V43.446a.843.843,0,0,0-.795-.885Zm-16.5,8.161a.422.422,0,0,1-.4.443H72.945a.422.422,0,0,1-.4-.443V49.267a.422.422,0,0,1,.4-.443H93.007a.422.422,0,0,1,.4.443Zm6.6-3.51a.422.422,0,0,1-.4.443H97.544a.422.422,0,0,1-.4-.443V45.925a.422.422,0,0,1,.4-.443H99.61a.422.422,0,0,1,.4.443Zm4.074,0a.422.422,0,0,1-.4.443h-2.066a.422.422,0,0,1-.4-.443V45.925a.422.422,0,0,1,.4-.443h2.067a.422.422,0,0,1,.4.443v1.287Zm4.074,0a.422.422,0,0,1-.4.443h-2.067a.422.422,0,0,1-.4-.443V45.926a.422.422,0,0,1,.4-.443h2.067a.422.422,0,0,1,.4.443Zm1.751,9.587H70.8a.843.843,0,0,0-.795.884V68.14a.844.844,0,0,0,.795.884h39.11a.844.844,0,0,0,.795-.884V57.684A.843.843,0,0,0,109.907,56.8Zm-16.5,8.161a.422.422,0,0,1-.4.443H72.945a.422.422,0,0,1-.4-.443V63.5a.422.422,0,0,1,.4-.443H93.008a.422.422,0,0,1,.4.443Zm6.6-3.51a.422.422,0,0,1-.4.443H97.544a.422.422,0,0,1-.4-.443V60.164a.422.422,0,0,1,.4-.443h2.067a.422.422,0,0,1,.4.443Zm4.074,0a.422.422,0,0,1-.4.443h-2.066a.422.422,0,0,1-.4-.443V60.164a.422.422,0,0,1,.4-.443h2.067a.422.422,0,0,1,.4.443V61.45Zm4.074,0a.422.422,0,0,1-.4.443h-2.067a.422.422,0,0,1-.4-.443V60.164a.422.422,0,0,1,.4-.443h2.067a.422.422,0,0,1,.4.443Z" fill="#00598e"/>
  </g>
</svg>
