<svg xmlns="http://www.w3.org/2000/svg" width="68.636" height="68.636" viewBox="0 0 68.636 68.636">
  <path id="Path_137" data-name="Path 137" d="M171.184,91.382h-2.451V64.495a7.418,7.418,0,0,0-2.451-5.5V57.064a2.451,2.451,0,0,0-2.451-2.451H160.1a22.753,22.753,0,0,0-.886-2.14l2.638-2.639a2.45,2.45,0,0,0,0-3.467l-6.933-6.934a2.45,2.45,0,0,0-3.466,0l-2.641,2.638a22.148,22.148,0,0,0-2.139-.885V37.454A2.451,2.451,0,0,0,144.22,35h-9.805a2.451,2.451,0,0,0-2.451,2.451v3.732a22.354,22.354,0,0,0-2.14.886l-2.641-2.638a2.45,2.45,0,0,0-3.466,0l-6.933,6.934a2.449,2.449,0,0,0,0,3.466l2.638,2.639a22.836,22.836,0,0,0-.885,2.14H114.8a2.451,2.451,0,0,0-2.451,2.451v1.867a7.287,7.287,0,0,0-2.451,5.487V91.382h-2.451A2.451,2.451,0,0,0,105,93.834a9.816,9.816,0,0,0,9.805,9.805H163.83a9.816,9.816,0,0,0,9.805-9.805,2.451,2.451,0,0,0-2.451-2.451ZM117.256,61.967h44.123a2.453,2.453,0,0,1,2.437,2.451h-49.01a2.4,2.4,0,0,1,2.451-2.451Zm8.194-17.334,2.188,2.187a2.444,2.444,0,0,0,2.98.377,17.034,17.034,0,0,1,4.409-1.824A2.451,2.451,0,0,0,136.866,43V39.9h4.9V43a2.452,2.452,0,0,0,1.838,2.374,17.048,17.048,0,0,1,4.41,1.824,2.451,2.451,0,0,0,2.98-.377l2.188-2.187,3.466,3.467-2.188,2.187a2.453,2.453,0,0,0-.378,2.979,17.022,17.022,0,0,1,1.623,3.8h-5.571l.718-.718a2.45,2.45,0,0,0,0-3.466l-4.9-4.9a2.451,2.451,0,0,0-3.466,3.466l3.169,3.17-2.451,2.451H135.43l-2.451-2.451,3.17-3.17a2.451,2.451,0,0,0-3.466-3.466l-4.9,4.9a2.45,2.45,0,0,0,0,3.466l.718.718h-5.571a17.008,17.008,0,0,1,1.623-3.8,2.454,2.454,0,0,0-.378-2.979L121.984,48.1ZM114.8,69.32h49.026V91.382H114.8Zm49.026,29.416H114.8a4.9,4.9,0,0,1-4.244-2.451h57.514a4.9,4.9,0,0,1-4.244,2.451Z" transform="translate(-105 -35.003)" fill="#00598e"/>
</svg>
